<svg width="74" height="26" viewBox="0 0 74 26" fill="none" xmlns="http://www.w3.org/2000/svg">
<path fill-rule="evenodd" clip-rule="evenodd" d="M10.2552 10.1078C10.0811 8.90291 9.06364 7.87204 7.61774 7.51056C5.94425 7.09554 4.27076 7.26958 2.59726 7.52395C2.38306 7.55073 2.3295 7.69799 2.27595 7.9122C1.95464 9.61247 1.63333 11.2994 1.31202 12.9862C0.990708 14.6731 0.669398 16.3734 0.348087 18.0603C0.267759 18.4351 0.200819 18.81 0.13388 19.1982C0.0937157 19.4526 0.0401639 19.707 0 19.9614C0.214207 19.9614 0.428414 19.9614 0.642622 19.9614C1.25847 19.9614 1.86093 19.9614 2.46338 19.948C2.53032 19.948 2.62404 19.7739 2.63743 19.6668C2.8918 18.3548 3.14617 17.0562 3.38715 15.7442C3.42732 15.4898 3.50764 15.4095 3.7754 15.4362C4.91338 15.5433 6.02458 15.4496 7.12239 15.1015C9.19752 14.4321 10.6033 12.5043 10.2552 10.1078ZM7.43031 11.9152C7.0019 12.7988 6.26556 13.2272 5.34179 13.3209C5.02048 13.3611 4.68578 13.3477 4.3377 13.3343C4.17704 13.3343 4.003 13.3209 3.82895 13.3209C3.94945 12.7586 4.04316 12.1963 4.15026 11.6608C4.28414 10.978 4.40464 10.322 4.52513 9.66602C4.5519 9.5857 4.65901 9.4652 4.73934 9.45182C5.39534 9.3581 6.03797 9.31794 6.6672 9.54553C7.56419 9.85345 7.89889 10.9111 7.43031 11.9152Z" fill="black"/>
<path fill-rule="evenodd" clip-rule="evenodd" d="M19.0644 10.9647C18.7967 10.9245 18.5289 10.8843 18.2746 10.8308C17.7792 10.7504 17.2972 10.6567 16.8019 10.63C15.3158 10.5496 13.8833 10.804 12.6248 11.6608C10.6434 13.0264 9.81337 14.981 9.90708 17.3507C9.94725 18.4753 10.3891 19.4392 11.4601 19.9212C12.5445 20.4166 13.6022 20.2559 14.5393 19.5329C14.8472 19.292 15.115 18.9974 15.3961 18.6895C15.53 18.5422 15.6639 18.395 15.7978 18.2477C15.7844 18.3816 15.7844 18.5155 15.771 18.6493C15.7576 18.9707 15.7442 19.292 15.7175 19.5999C15.6907 19.881 15.7844 19.9881 16.0789 19.9747C16.6278 19.9614 17.1901 19.9614 17.739 19.9747C18.0336 19.9881 18.1005 19.8676 18.1273 19.5865C18.1407 19.4392 18.1407 19.3054 18.1541 19.1581C18.2076 18.3414 18.2612 17.5248 18.3817 16.7349C18.6093 15.3425 18.877 13.9502 19.1448 12.5578C19.2117 12.183 19.292 11.8081 19.359 11.4332C19.4125 11.1789 19.3724 11.0048 19.0644 10.9647ZM16.2262 13.8832C16.0522 14.981 15.8781 16.0655 15.2489 17.0294C15.0882 17.2838 14.874 17.498 14.6464 17.6988C14.2716 18.0201 13.8298 18.1674 13.3478 17.9666C12.8658 17.7657 12.6918 17.3373 12.665 16.8821C12.5713 15.3827 13.08 14.1376 14.2314 13.1737C14.8339 12.6649 15.5568 12.4909 16.427 12.7319C16.3467 13.1201 16.2931 13.495 16.2262 13.8832Z" fill="black"/>
<path fill-rule="evenodd" clip-rule="evenodd" d="M36.7767 11.3797C35.8396 10.6835 34.7685 10.5362 33.6305 10.6701C29.815 11.0985 28.2486 15.1551 29.0652 17.739C29.5606 19.3187 30.8994 20.189 33.2691 20.189C34.889 20.1488 36.5089 19.225 37.513 17.3239C38.0486 16.3064 38.2494 15.2086 38.1691 14.0707C38.1021 12.9728 37.6603 12.0491 36.7767 11.3797ZM34.407 17.4846C34.0991 17.8595 33.7243 18.1138 33.2289 18.1674C32.3453 18.2477 31.6759 17.6452 31.609 16.7081C31.609 16.6144 31.609 16.5207 31.609 16.4269C31.609 16.3868 31.609 16.3332 31.609 16.2931C31.6357 15.2622 31.8901 14.3116 32.5059 13.4548C32.7871 13.08 33.1352 12.7988 33.5904 12.6917C34.5409 12.4775 35.3174 13.0264 35.3977 14.0573C35.4915 15.3024 35.1969 16.4671 34.407 17.4846Z" fill="black"/>
<path fill-rule="evenodd" clip-rule="evenodd" d="M46.2152 10.6701C45.0505 10.4827 44.0464 10.8174 43.1628 11.5939C43.0021 11.7412 42.8414 11.8884 42.6674 12.0491C42.5871 12.1294 42.5067 12.1963 42.4264 12.2767C42.4666 11.8081 42.5067 11.3395 42.5469 10.8576H40.2843C39.7354 13.8966 39.1731 16.9089 38.5841 19.9881C38.7581 19.9881 38.9322 19.9881 39.1062 19.9881C39.7756 19.9881 40.4048 19.9881 41.0341 19.9747C41.1278 19.9614 41.2617 19.7873 41.2884 19.6668C41.4357 18.9037 41.5696 18.1406 41.7169 17.3641C41.757 17.1365 41.7972 16.9223 41.8373 16.6947C41.998 15.7977 42.1587 14.8873 42.6272 14.0707C42.9352 13.5218 43.3234 13.013 43.966 12.8122C44.622 12.6114 45.1308 12.9193 45.2111 13.6021C45.2379 13.8029 45.2513 14.0037 45.2245 14.2045C45.0505 15.3559 44.8496 16.5073 44.6488 17.6586C44.5149 18.4084 44.3677 19.1581 44.2338 19.9078C44.2472 19.9212 44.274 19.9212 44.2873 19.9346C44.3275 19.9614 44.3543 19.9747 44.3811 19.9747C45.1442 19.9881 45.9207 19.9881 46.6838 19.9747C46.7775 19.9614 46.9114 19.8007 46.9382 19.6802C47.1122 18.7966 47.2862 17.913 47.4603 17.016C47.5406 16.6144 47.6209 16.1993 47.6879 15.7977L47.7281 15.5835C47.9155 14.5794 48.1163 13.5887 47.9958 12.5444C47.8485 11.5403 47.1791 10.8308 46.2152 10.6701Z" fill="black"/>
<path fill-rule="evenodd" clip-rule="evenodd" d="M55.6671 10.8308C53.9668 10.322 52.4138 10.6835 51.0884 11.8081C49.4685 13.1871 48.866 15.0078 49.107 17.0963C49.2677 18.569 50.0709 19.6267 51.5302 20.0015C53.0966 20.4032 54.6362 20.189 56.1357 19.5865C56.2428 19.5463 56.3633 19.3723 56.3633 19.2652C56.3365 18.8234 56.2963 18.395 56.2562 17.9532C56.2428 17.8461 56.2294 17.739 56.2294 17.6319C56.2026 17.6319 56.1758 17.6319 56.1625 17.6319C56.1357 17.6319 56.1223 17.6319 56.1089 17.6319C56.0152 17.672 55.9081 17.6988 55.8278 17.739C54.9709 18.0737 54.0873 18.2075 53.1769 18.1004C52.2264 17.9799 51.5972 17.3239 51.6641 16.3868C51.8649 16.3868 52.0524 16.3868 52.2532 16.3868C52.6414 16.3868 53.0297 16.4002 53.4045 16.3868C54.3283 16.3332 55.2253 16.186 56.0554 15.7575C57.1264 15.222 57.6217 14.3384 57.5414 13.1871C57.4209 12.0223 56.7917 11.1789 55.6671 10.8308ZM54.5157 14.151C53.9668 14.4321 52.5611 14.6062 51.8783 14.4589C52.0256 13.2674 53.284 12.3436 54.3417 12.598C54.7032 12.6917 54.9575 12.8791 55.0245 13.254C55.078 13.6422 54.8906 13.9502 54.5157 14.151Z" fill="black"/>
<path fill-rule="evenodd" clip-rule="evenodd" d="M64.5032 10.8308C62.5619 10.2953 60.875 10.8174 59.4961 12.2767C58.2242 13.6422 57.7422 15.289 57.9698 17.1231C58.1439 18.5556 58.8936 19.5999 60.3261 19.9881C61.9193 20.4299 63.4857 20.2157 64.9985 19.5865C65.0922 19.5463 65.2261 19.3723 65.2127 19.2652C65.1993 18.9037 65.1592 18.5288 65.119 18.154C65.1056 17.9666 65.0788 17.7791 65.0654 17.5917C64.9851 17.6185 64.9048 17.6586 64.8379 17.6854C64.7575 17.7122 64.6772 17.7523 64.6103 17.7791C63.7668 18.087 62.91 18.2209 62.0264 18.1138C61.0758 17.9933 60.4466 17.3239 60.5269 16.4403C60.7947 16.4403 61.0491 16.4403 61.29 16.4537C62.5083 16.4269 63.6999 16.3466 64.8245 15.8245C65.9357 15.3024 66.4712 14.4187 66.4042 13.2406C66.3239 12.0223 65.6947 11.1655 64.5032 10.8308ZM63.4589 14.1108C63.1376 14.2581 62.7761 14.3652 62.428 14.4187C62.0532 14.4723 61.6649 14.4857 61.2767 14.5125C61.116 14.5259 60.9553 14.5258 60.7947 14.5392C60.9152 13.2808 62.2272 12.3168 63.2715 12.6114C63.6195 12.7051 63.8739 12.8791 63.9275 13.254C63.9676 13.6422 63.807 13.9636 63.4589 14.1108Z" fill="black"/>
<path fill-rule="evenodd" clip-rule="evenodd" d="M70.1796 12.6515L70.193 12.4775C70.2332 11.942 70.2734 11.4065 70.3269 10.8308C70.1395 10.8308 69.9654 10.8308 69.778 10.8308C69.2559 10.8308 68.7471 10.8308 68.2384 10.8442C68.1715 10.8576 68.0376 11.0182 68.0242 11.1119C67.8368 13.4147 67.3816 15.6638 66.9398 17.8996L66.8996 18.1138C66.7791 18.7163 66.672 19.3187 66.5649 19.9881C66.7389 19.9881 66.913 19.9881 67.087 19.9881C67.7698 19.9881 68.4258 19.9881 69.0818 19.9747C69.1488 19.9747 69.2425 19.8007 69.2559 19.6936C69.3496 19.2518 69.4299 18.7966 69.5102 18.3548C69.6709 17.5248 69.8182 16.6947 70.019 15.8914C70.4608 14.084 71.1971 13.4548 72.951 13.2272C73.0179 13.2138 73.1384 13.1335 73.1518 13.08C73.2589 12.5712 73.366 12.0491 73.4731 11.5136C73.5266 11.2324 73.5802 10.9513 73.6337 10.6701C71.9335 10.4559 70.9963 11.4466 70.1796 12.6515Z" fill="black"/>
<path fill-rule="evenodd" clip-rule="evenodd" d="M43.2834 0.0669398C43.1897 0.0401639 43.1093 0.0267759 43.0156 0C42.7345 0 42.4667 0 42.1722 0.013388C42.0785 0.0401639 41.9714 0.0535518 41.8643 0.0803277C41.7438 0.107104 41.6099 0.13388 41.4894 0.160655C40.1238 0.415026 38.8386 0.896993 37.6069 1.52623C34.9293 2.8918 32.5195 4.64562 30.364 6.73414C28.9315 8.1131 27.5391 9.54561 26.187 11.0317C23.8307 13.6289 21.7957 16.4806 20.1892 19.6C19.3591 21.2199 18.6094 22.8666 18.2747 24.674C18.2077 25.0087 18.3148 25.3836 18.4219 25.7183C18.4621 25.8521 18.7165 25.9458 18.8905 25.9994C18.9307 26.0128 19.0646 25.7986 19.1315 25.6647C19.1583 25.6112 19.1717 25.571 19.1984 25.5174C19.5867 24.674 20.1088 23.5226 20.564 22.7595C21.5279 21.153 22.2911 19.9079 23.3621 18.3817C25.0891 15.9183 27.1107 13.5084 29.2394 11.3798C31.2476 9.37157 33.2558 7.56419 35.7727 6.21201C36.9375 5.59616 38.1156 4.98032 39.3339 4.48496C41.4224 3.61475 43.6181 3.02568 45.8539 2.69098C46.0948 2.65081 46.4162 2.46338 46.4965 2.27595C46.5634 2.10191 46.4028 1.75382 46.2287 1.59317C45.5459 0.883605 44.7427 0.348087 43.7386 0.187431C43.5779 0.147267 43.4306 0.107104 43.2834 0.0669398ZM22.8801 12.2634C23.3085 11.0986 23.5228 9.8937 23.5495 8.64862C23.5361 8.51474 23.5228 8.38086 23.5228 8.24698C23.5094 7.97922 23.4826 7.71146 23.4424 7.4437C23.2014 5.36857 22.3045 3.60136 20.8987 2.10191C20.7247 1.92786 20.4971 1.79399 20.2695 1.71366C20.0419 1.61994 19.8812 1.75382 19.908 2.02158V2.03497C19.9214 2.26256 19.9482 2.50355 19.9883 2.71775C20.0553 3.07923 20.1088 3.42732 20.1758 3.78879C20.4034 5.06065 20.6176 6.3325 20.8586 7.60436C21.0995 8.8896 21.3673 10.1481 21.6484 11.4199C21.7422 11.8216 21.9028 12.2232 22.1036 12.5981C22.2509 12.8792 22.4651 12.8524 22.6659 12.5981C22.7463 12.5043 22.8266 12.3972 22.8801 12.2634Z" fill="#FC461E"/>
</svg>
