<svg width="69" height="18" viewBox="0 0 69 18" fill="none" xmlns="http://www.w3.org/2000/svg">
<path d="M13.2591 1.71379C12.4713 0.815901 11.0473 0.430957 9.22568 0.430957H3.93861C3.75828 0.430861 3.58384 0.495131 3.44667 0.612197C3.3095 0.729263 3.21862 0.891441 3.19038 1.06955L0.989901 15.0324C0.979697 15.0972 0.983658 15.1634 1.00151 15.2265C1.01936 15.2896 1.05068 15.3481 1.0933 15.3979C1.13593 15.4477 1.18885 15.4877 1.24842 15.5151C1.30799 15.5425 1.3728 15.5567 1.43837 15.5566H4.70238L5.52215 10.3571L5.49673 10.5199C5.52444 10.3422 5.61471 10.1802 5.75129 10.0631C5.88787 9.946 6.06178 9.88154 6.24168 9.88133H7.79274C10.8398 9.88133 13.2257 8.64368 13.9226 5.06344C13.9433 4.95756 13.9612 4.8545 13.9768 4.75379C14.1838 3.4305 13.9753 2.52979 13.2596 1.71426" fill="#003087"/>
<path d="M53.2192 8.35909C53.0196 9.66921 52.0192 9.66921 51.0516 9.66921H50.501L50.8874 7.22308C50.9109 7.07532 51.038 6.96661 51.1876 6.96661H51.4403C52.0992 6.96661 52.7213 6.96661 53.0422 7.34167C53.2338 7.56614 53.2916 7.89932 53.2192 8.35909ZM52.798 4.94073H49.1481C49.0272 4.94079 48.9103 4.98393 48.8184 5.06242C48.7264 5.1409 48.6655 5.24959 48.6465 5.36896L47.1716 14.7276C47.1648 14.771 47.1675 14.8153 47.1795 14.8576C47.1914 14.8998 47.2124 14.939 47.2409 14.9724C47.2694 15.0058 47.3048 15.0326 47.3447 15.051C47.3846 15.0694 47.4279 15.079 47.4719 15.0791H49.3448C49.5194 15.0791 49.6681 14.952 49.6954 14.7798L50.1142 12.1257C50.1528 11.8796 50.3655 11.6974 50.6149 11.6974H51.7698C54.1745 11.6974 55.5618 10.5346 55.9241 8.22826C56.0874 7.22026 55.9307 6.42779 55.4587 5.87296C54.9396 5.26308 54.0196 4.94026 52.7985 4.94026" fill="#009CDE"/>
<path d="M27.1841 8.35935C26.9846 9.66947 25.9841 9.66947 25.0161 9.66947H24.4655L24.8519 7.22334C24.8754 7.07558 25.0024 6.96688 25.1521 6.96688H25.4048C26.0636 6.96688 26.6857 6.96688 27.0067 7.34194C27.1987 7.56641 27.2566 7.89958 27.1841 8.35935ZM26.7629 4.94099H23.113C22.8636 4.94099 22.6509 5.12263 22.6118 5.36922L21.1366 14.7278C21.1297 14.7712 21.1323 14.8156 21.1442 14.8579C21.1562 14.9002 21.1771 14.9394 21.2056 14.9728C21.2342 15.0062 21.2696 15.033 21.3095 15.0514C21.3494 15.0698 21.3928 15.0794 21.4368 15.0794H23.1798C23.4293 15.0794 23.6415 14.8977 23.6806 14.6511L24.0791 12.1264C24.1177 11.8798 24.3304 11.6982 24.5799 11.6982H25.7347C28.1394 11.6982 29.5267 10.5349 29.889 8.22852C30.0523 7.22052 29.8956 6.42805 29.4236 5.87323C28.9046 5.26334 27.9846 4.94052 26.7634 4.94052M35.2368 11.7194C35.0674 12.7179 34.2754 13.3885 33.2641 13.3885C32.7573 13.3885 32.3512 13.2252 32.0905 12.9165C31.8316 12.6107 31.7347 12.1744 31.8166 11.6892C31.9738 10.6991 32.7794 10.0074 33.7752 10.0074C34.2716 10.0074 34.674 10.1721 34.9403 10.4836C35.2081 10.7975 35.3135 11.2361 35.2368 11.7194ZM37.6726 8.317H35.9248C35.8522 8.31691 35.7819 8.34281 35.7266 8.39001C35.6714 8.43722 35.6349 8.50262 35.6236 8.57441L35.5474 9.06288L35.4251 8.88594C35.0467 8.33676 34.2029 8.15276 33.3606 8.15276C31.4298 8.15276 29.7803 9.61629 29.4594 11.6681C29.2923 12.6925 29.5295 13.6709 30.1102 14.3537C30.6434 14.981 31.4043 15.2422 32.3112 15.2422C33.8679 15.2422 34.7309 14.2427 34.7309 14.2427L34.6528 14.7283C34.6459 14.7717 34.6486 14.8162 34.6605 14.8585C34.6725 14.9008 34.6935 14.94 34.7221 14.9734C34.7507 15.0069 34.7862 15.0337 34.8261 15.0521C34.8661 15.0704 34.9095 15.0799 34.9535 15.0798H36.5272C36.7766 15.0798 36.9893 14.8987 37.0284 14.6516L37.9733 8.669C37.9801 8.62553 37.9774 8.58111 37.9654 8.53879C37.9534 8.49646 37.9323 8.45725 37.9037 8.42384C37.8751 8.39043 37.8396 8.36362 37.7996 8.34526C37.7596 8.3269 37.7161 8.31741 37.6721 8.31747" fill="#003087"/>
<path d="M61.2711 11.7184C61.1017 12.717 60.3097 13.3876 59.2984 13.3876C58.7916 13.3876 58.3855 13.2243 58.1247 12.9156C57.8659 12.6097 57.769 12.1734 57.8509 11.6883C58.008 10.6981 58.8132 10.0064 59.8095 10.0064C60.3059 10.0064 60.7083 10.1711 60.9746 10.4826C61.2424 10.7965 61.3478 11.2351 61.2711 11.7184ZM63.7069 8.31602H61.9591C61.8864 8.31593 61.8162 8.34183 61.7609 8.38904C61.7057 8.43624 61.6692 8.50165 61.6579 8.57343L61.5817 9.0619L61.4593 8.88496C61.081 8.33578 60.2372 8.15178 59.3949 8.15178C57.4645 8.15178 55.8151 9.61531 55.4937 11.6671C55.3266 12.6916 55.5643 13.6699 56.145 14.3527C56.6782 14.98 57.4391 15.2412 58.3459 15.2412C59.9031 15.2412 60.7662 14.2417 60.7662 14.2417L60.688 14.7273C60.681 14.7707 60.6835 14.8151 60.6953 14.8574C60.7072 14.8998 60.7281 14.939 60.7566 14.9724C60.7851 15.0059 60.8206 15.0327 60.8605 15.0511C60.9004 15.0695 60.9439 15.0789 60.9878 15.0789H62.561C62.8104 15.0789 63.0231 14.8977 63.0626 14.6506L64.0076 8.66802C64.0144 8.62455 64.0117 8.58013 63.9997 8.53781C63.9877 8.49549 63.9666 8.45627 63.938 8.42286C63.9094 8.38945 63.8738 8.36265 63.8339 8.34428C63.7939 8.32592 63.7504 8.31644 63.7064 8.31649" fill="#009CDE"/>
<path d="M46.9798 8.31678H45.2226C45.0546 8.31678 44.8979 8.40008 44.8038 8.53937L42.3803 12.1083L41.353 8.67867C41.3216 8.57406 41.2574 8.48233 41.1699 8.41706C41.0823 8.3518 40.9761 8.31647 40.8669 8.31631H39.1403C39.0918 8.31634 39.0441 8.32791 39.0011 8.35006C38.958 8.37222 38.9209 8.40432 38.8927 8.44371C38.8646 8.48309 38.8462 8.52862 38.8392 8.57653C38.8321 8.62443 38.8366 8.67332 38.8523 8.71914L40.7864 14.3973L38.9671 16.9643C38.9349 17.0099 38.9159 17.0634 38.9121 17.1191C38.9083 17.1747 38.9198 17.2303 38.9455 17.2798C38.9711 17.3294 39.0099 17.3709 39.0575 17.3999C39.1051 17.4289 39.1598 17.4443 39.2156 17.4443H40.9709C41.1365 17.4443 41.2923 17.3629 41.3873 17.2265L47.2292 8.79443C47.2609 8.74885 47.2796 8.69546 47.2831 8.64004C47.2866 8.58462 47.2749 8.5293 47.2492 8.48007C47.2235 8.43085 47.1848 8.38961 47.1373 8.36082C47.0898 8.33204 47.0353 8.31681 46.9798 8.31678Z" fill="#003087"/>
<path d="M65.7676 5.19767L64.2693 14.7276C64.2625 14.771 64.2652 14.8154 64.2772 14.8577C64.2892 14.9 64.3102 14.9391 64.3387 14.9725C64.3673 15.0059 64.4028 15.0328 64.4427 15.0512C64.4826 15.0696 64.526 15.0791 64.57 15.0791H66.0763C66.3258 15.0791 66.5385 14.8975 66.5775 14.6509L68.0547 5.29178C68.0616 5.24835 68.059 5.20393 68.047 5.16161C68.035 5.11929 68.014 5.08006 67.9855 5.04664C67.9569 5.01322 67.9214 4.9864 67.8814 4.96804C67.8414 4.94967 67.798 4.94019 67.754 4.94026H66.0683C65.9958 4.94007 65.9256 4.96589 65.8704 5.01302C65.8152 5.06016 65.7788 5.12597 65.7676 5.19767Z" fill="#009CDE"/>
<path d="M13.2591 1.71379C12.4713 0.815901 11.0473 0.430957 9.22568 0.430957H3.93861C3.75828 0.430861 3.58384 0.495131 3.44667 0.612197C3.3095 0.729263 3.21862 0.891441 3.19038 1.06955L0.989901 15.0324C0.979697 15.0972 0.983658 15.1634 1.00151 15.2265C1.01936 15.2896 1.05068 15.3481 1.0933 15.3979C1.13593 15.4477 1.18885 15.4877 1.24842 15.5151C1.30799 15.5425 1.3728 15.5567 1.43837 15.5566H4.70238L5.52215 10.3571L5.49673 10.5199C5.52444 10.3422 5.61471 10.1802 5.75129 10.0631C5.88787 9.946 6.06178 9.88154 6.24168 9.88133H7.79274C10.8398 9.88133 13.2257 8.64368 13.9226 5.06344C13.9433 4.95756 13.9612 4.8545 13.9768 4.75379C14.1838 3.4305 13.9753 2.52979 13.2596 1.71426" fill="#003087"/>
<path d="M6.40316 4.77192C6.4279 4.61629 6.50729 4.47458 6.62708 4.3722C6.74688 4.26983 6.89923 4.2135 7.05681 4.21333H11.2018C11.6926 4.21333 12.1505 4.24533 12.5688 4.31215C12.7976 4.34895 13.0239 4.39955 13.2465 4.46368C13.4993 4.53476 13.7439 4.63224 13.9764 4.75451C14.1844 3.43074 13.9754 2.5305 13.2597 1.7145C12.4714 0.817087 11.0479 0.432144 9.22623 0.432144H3.93869C3.75852 0.432272 3.5843 0.496642 3.44733 0.613688C3.31036 0.730735 3.21961 0.892789 3.19139 1.07073L0.989975 15.0322C0.979703 15.0969 0.983595 15.1632 1.00138 15.2263C1.01917 15.2894 1.05044 15.3479 1.09302 15.3978C1.1356 15.4477 1.18849 15.4877 1.24805 15.5152C1.3076 15.5427 1.3724 15.5569 1.43798 15.5569H4.70245L5.52222 10.3569L6.40316 4.77192Z" fill="#003087"/>
<path d="M13.9778 4.75395C13.9616 4.85749 13.9436 4.96072 13.9237 5.0636C13.2267 8.64337 10.8409 9.88149 7.79379 9.88149H6.24225C6.06239 9.88162 5.88849 9.94606 5.75197 10.0632C5.61544 10.1803 5.52529 10.3423 5.49778 10.5201L4.70343 15.5563L4.47754 16.985C4.46856 17.0418 4.47199 17.0998 4.48758 17.155C4.50318 17.2103 4.53058 17.2615 4.56788 17.3052C4.60519 17.3488 4.65152 17.3839 4.70368 17.4079C4.75584 17.4319 4.81259 17.4444 4.87002 17.4443H7.62155C7.9472 17.4443 8.22391 17.2072 8.2752 16.8857L8.30202 16.7455L8.82061 13.4589L8.85355 13.2773C8.87821 13.1215 8.95764 12.9797 9.07755 12.8773C9.19747 12.7749 9.34999 12.7186 9.50767 12.7187H9.91944C12.5849 12.7187 14.6719 11.6363 15.2818 8.50408C15.5359 7.19584 15.4042 6.10266 14.7312 5.33513C14.5175 5.09717 14.2622 4.90022 13.9778 4.75395Z" fill="#009CDE"/>
<path d="M13.2462 4.46378C13.1399 4.43225 13.0302 4.40401 12.9173 4.37907C12.8043 4.35413 12.6876 4.33201 12.5681 4.31319C12.1493 4.24495 11.6919 4.21295 11.2006 4.21295H7.0561C6.89834 4.21276 6.74573 4.26902 6.62584 4.37156C6.50596 4.47409 6.42672 4.61614 6.40245 4.77201L5.52151 10.3579L5.49609 10.5203C5.5236 10.3425 5.61376 10.1805 5.75028 10.0633C5.8868 9.94624 6.0607 9.8818 6.24057 9.88167H7.7921C10.8392 9.88167 13.2251 8.64402 13.922 5.06378C13.9427 4.9579 13.9601 4.85531 13.9761 4.75413C13.7921 4.65783 13.6003 4.57692 13.4029 4.51225C13.3516 4.49531 13.2994 4.47978 13.2462 4.46378Z" fill="#012169"/>
</svg>
